<svg width="32" height="32" viewBox="0 0 32 32" fill="none" xmlns="http://www.w3.org/2000/svg">
    <!-- 书本底部 -->
    <path d="M4 24C4 22.8954 4.89543 22 6 22H26C27.1046 22 28 22.8954 28 24V26C28 27.1046 27.1046 28 26 28H6C4.89543 28 4 27.1046 4 26V24Z" fill="#234a7c"/>
    
    <!-- 书本主体 -->
    <path d="M6 4C4.89543 4 4 4.89543 4 6V24C4 22.8954 4.89543 22 6 22H26C27.1046 22 28 22.8954 28 24V6C28 4.89543 27.1046 4 26 4H6Z" fill="#4a90e2"/>
    
    <!-- 书页纹理 -->
    <path d="M8 8H24M8 12H24M8 16H16" stroke="white" stroke-width="2" stroke-linecap="round"/>
    
    <!-- 毕业帽 -->
    <path d="M16 2L22 6L16 10L10 6L16 2Z" fill="#234a7c"/>
    <path d="M22 6V10" stroke="#234a7c" stroke-width="2"/>
    
    <!-- 人形图标 -->
    <circle cx="20" cy="14" r="2" fill="#234a7c"/>
    <circle cx="24" cy="14" r="2" fill="#234a7c"/>
    <path d="M19 17C19 15.8954 19.8954 15 21 15H23C24.1046 15 25 15.8954 25 17" stroke="#234a7c" stroke-width="2"/>
</svg> 